<?xml version="1.0" encoding="UTF-8"?>
<svg xmlns="http://www.w3.org/2000/svg" xmlns:xlink="http://www.w3.org/1999/xlink" width="31pt" height="31pt" viewBox="0 0 31 31" version="1.1">
<g id="surface1523228">
<path style=" stroke:none;fill-rule:nonzero;fill:rgb(100%,100%,100%);fill-opacity:1;" d="M 13.019531 1.859375 C 7.203125 1.859375 2.480469 6.585938 2.480469 12.398438 C 2.480469 18.214844 7.203125 22.941406 13.019531 22.941406 C 15.320312 22.941406 17.445312 22.199219 19.179688 20.945312 L 27.339844 29.082031 L 29.082031 27.339844 L 21.023438 19.257812 C 22.605469 17.414062 23.558594 15.019531 23.558594 12.398438 C 23.558594 6.585938 18.835938 1.859375 13.019531 1.859375 Z M 13.019531 3.101562 C 18.164062 3.101562 22.320312 7.257812 22.320312 12.398438 C 22.320312 17.542969 18.164062 21.699219 13.019531 21.699219 C 7.875 21.699219 3.71875 17.542969 3.71875 12.398438 C 3.71875 7.257812 7.875 3.101562 13.019531 3.101562 Z M 13.019531 3.101562 "/>
</g>
</svg>
